<mxfile host="65bd71144e">
    <diagram id="TRiJtbElpmBFeJ9uYhDK" name="SoftwareArchitectureDiagram">
        <mxGraphModel dx="854" dy="659" grid="1" gridSize="10" guides="1" tooltips="1" connect="1" arrows="1" fold="1" page="1" pageScale="1" pageWidth="850" pageHeight="1100" math="0" shadow="0">
            <root>
                <mxCell id="0"/>
                <mxCell id="1" parent="0"/>
                <mxCell id="12" value="Input" style="swimlane;whiteSpace=wrap;html=1;fontSize=15;startSize=30;" vertex="1" parent="1">
                    <mxGeometry y="185" width="200" height="140" as="geometry"/>
                </mxCell>
                <mxCell id="15" value="Dataset" style="rounded=0;whiteSpace=wrap;html=1;fontSize=15;" vertex="1" parent="12">
                    <mxGeometry x="40" y="50" width="120" height="60" as="geometry"/>
                </mxCell>
                <mxCell id="13" value="Output" style="swimlane;whiteSpace=wrap;html=1;fontSize=15;startSize=30;" vertex="1" parent="1">
                    <mxGeometry x="610" y="180" width="200" height="150" as="geometry"/>
                </mxCell>
                <mxCell id="16" value="Dashboard" style="rounded=0;whiteSpace=wrap;html=1;fontSize=15;" vertex="1" parent="13">
                    <mxGeometry x="40" y="50" width="120" height="60" as="geometry"/>
                </mxCell>
                <mxCell id="14" value="Functions" style="swimlane;whiteSpace=wrap;html=1;fontSize=15;startSize=30;" vertex="1" parent="1">
                    <mxGeometry x="230" y="130" width="350" height="310" as="geometry">
                        <mxRectangle x="230" y="130" width="110" height="30" as="alternateBounds"/>
                    </mxGeometry>
                </mxCell>
                <mxCell id="22" style="edgeStyle=none;html=1;exitX=1;exitY=0.5;exitDx=0;exitDy=0;entryX=0;entryY=0.5;entryDx=0;entryDy=0;fontSize=15;" edge="1" parent="14" source="17" target="19">
                    <mxGeometry relative="1" as="geometry"/>
                </mxCell>
                <mxCell id="29" style="edgeStyle=none;html=1;exitX=0.5;exitY=1;exitDx=0;exitDy=0;entryX=0;entryY=0.5;entryDx=0;entryDy=0;fontSize=15;" edge="1" parent="14" source="17" target="28">
                    <mxGeometry relative="1" as="geometry">
                        <Array as="points">
                            <mxPoint x="80" y="210"/>
                        </Array>
                    </mxGeometry>
                </mxCell>
                <mxCell id="17" value="GDAL2Tiles" style="rounded=0;whiteSpace=wrap;html=1;fontSize=15;" vertex="1" parent="14">
                    <mxGeometry x="20" y="80" width="120" height="60" as="geometry"/>
                </mxCell>
                <mxCell id="19" value="Dash / &lt;br&gt;Dash-leafet" style="rounded=0;whiteSpace=wrap;html=1;fontSize=15;" vertex="1" parent="14">
                    <mxGeometry x="210" y="80" width="120" height="60" as="geometry"/>
                </mxCell>
                <mxCell id="30" style="edgeStyle=none;html=1;exitX=1;exitY=0.5;exitDx=0;exitDy=0;entryX=0.5;entryY=1;entryDx=0;entryDy=0;fontSize=15;" edge="1" parent="14" source="28" target="19">
                    <mxGeometry relative="1" as="geometry">
                        <Array as="points">
                            <mxPoint x="270" y="210"/>
                        </Array>
                    </mxGeometry>
                </mxCell>
                <mxCell id="28" value="Detectree2&lt;br&gt;AI" style="rounded=0;whiteSpace=wrap;html=1;fontSize=15;" vertex="1" parent="14">
                    <mxGeometry x="115" y="180" width="120" height="60" as="geometry"/>
                </mxCell>
                <mxCell id="33" style="edgeStyle=none;html=1;exitX=1;exitY=0.5;exitDx=0;exitDy=0;entryX=0;entryY=0.5;entryDx=0;entryDy=0;fontSize=15;" edge="1" parent="1" source="15" target="17">
                    <mxGeometry relative="1" as="geometry">
                        <Array as="points">
                            <mxPoint x="210" y="265"/>
                            <mxPoint x="210" y="250"/>
                            <mxPoint x="210" y="240"/>
                        </Array>
                    </mxGeometry>
                </mxCell>
                <mxCell id="34" style="edgeStyle=none;html=1;exitX=1;exitY=0.5;exitDx=0;exitDy=0;entryX=0;entryY=0.5;entryDx=0;entryDy=0;fontSize=15;" edge="1" parent="1" source="19" target="16">
                    <mxGeometry relative="1" as="geometry">
                        <Array as="points">
                            <mxPoint x="600" y="240"/>
                            <mxPoint x="600" y="260"/>
                        </Array>
                    </mxGeometry>
                </mxCell>
            </root>
        </mxGraphModel>
    </diagram>
</mxfile>